<?xml version="1.0" encoding="UTF-8"?>
<svg width="512" height="512" viewBox="0 0 512 512" xmlns="http://www.w3.org/2000/svg">
  <defs>
    <linearGradient id="ghostGrad" x1="0%" y1="0%" x2="100%" y2="100%">
      <stop offset="0%" style="stop-color:#8b5cf6;stop-opacity:1" />
      <stop offset="100%" style="stop-color:#6d28d9;stop-opacity:1" />
    </linearGradient>
  </defs>
  <!-- Ghost body -->
  <path d="M256 64C167.6 64 96 135.6 96 224v160c0 17.7 14.3 32 32 32 8.8 0 16.8-3.6 22.6-9.4l9.4-9.4 9.4 9.4c11.2 11.2 29.4 11.2 40.6 0l18.7-18.7 18.7 18.7c11.2 11.2 29.4 11.2 40.6 0l18.7-18.7 18.7 18.7c11.2 11.2 29.4 11.2 40.6 0l9.4-9.4 9.4 9.4c5.8 5.8 13.8 9.4 22.6 9.4 17.7 0 32-14.3 32-32V224C416 135.6 344.4 64 256 64z" 
        fill="url(#ghostGrad)" stroke="#4c1d95" stroke-width="4"/>
  <!-- Eyes -->
  <circle cx="200" cy="200" r="24" fill="#1f2937"/>
  <circle cx="312" cy="200" r="24" fill="#1f2937"/>
  <circle cx="208" cy="192" r="8" fill="#ffffff"/>
  <circle cx="320" cy="192" r="8" fill="#ffffff"/>
  <!-- EMF sensor -->
  <rect x="220" y="280" width="72" height="40" rx="8" fill="#1f2937" stroke="#374151" stroke-width="2"/>
  <rect x="232" y="290" width="48" height="20" rx="4" fill="#22d3ee"/>
  <circle cx="240" cy="300" r="3" fill="#ffffff" opacity="0.8">
    <animate attributeName="opacity" values="0.8;1;0.8" dur="2s" repeatCount="indefinite"/>
  </circle>
</svg>